<svg xmlns="http://www.w3.org/2000/svg" width="685.105" height="246.447" viewBox="0 0 685.105 246.447"><path fill="#231F20" d="M195.9 189.14c0 .584-.03 1.105-.092 1.538-.07.442-.168.79-.31 1.057-.14.26-.313.455-.508.583-.208.124-.433.185-.684.185h-17.012v52.443c0 .256-.066.47-.19.658-.123.186-.343.336-.653.44-.313.107-.723.207-1.236.287-.516.067-1.162.116-1.938.116-.747 0-1.388-.05-1.918-.115-.535-.08-.95-.18-1.267-.286-.31-.104-.52-.256-.648-.44-.124-.19-.186-.402-.186-.658v-52.443h-17.02c-.25 0-.47-.06-.676-.185-.2-.128-.362-.322-.487-.583-.128-.266-.23-.613-.31-1.057-.074-.433-.11-.954-.11-1.537 0-.596.036-1.116.11-1.565.08-.457.182-.822.31-1.1.125-.275.288-.483.487-.61.207-.12.428-.187.676-.187h42.07c.25 0 .477.065.684.186.195.128.367.336.508.61.14.277.238.644.31 1.1.06.45.092.97.092 1.567zM247.507 244.945c0 .256-.043.47-.15.658-.088.186-.287.346-.6.46-.314.132-.746.22-1.308.288-.562.062-1.313.097-2.245.097-.813 0-1.475-.035-1.988-.096-.512-.067-.924-.167-1.237-.307-.313-.135-.557-.33-.725-.586-.176-.244-.323-.553-.45-.938l-5.557-14.255c-.653-1.617-1.34-3.11-2.032-4.463-.703-1.353-1.537-2.52-2.505-3.507-.966-.98-2.1-1.746-3.41-2.284-1.306-.547-2.88-.82-4.716-.82h-5.38v25.753c0 .256-.067.47-.213.658-.14.187-.352.337-.652.44-.3.108-.698.208-1.21.288-.517.066-1.162.115-1.944.115-.777 0-1.422-.05-1.935-.115-.518-.08-.933-.18-1.247-.287-.31-.103-.52-.255-.654-.44-.12-.188-.182-.4-.182-.657v-55.99c0-1.22.314-2.065.96-2.553.635-.48 1.31-.726 2.03-.726h12.85c1.528 0 2.8.046 3.812.12 1.01.07 1.925.167 2.734.262 2.336.4 4.4 1.04 6.193 1.91 1.79.87 3.296 1.977 4.515 3.322 1.21 1.335 2.125 2.876 2.73 4.604.61 1.723.91 3.637.91 5.72 0 2.034-.274 3.845-.822 5.452-.542 1.6-1.325 3.018-2.354 4.25-1.03 1.23-2.256 2.297-3.693 3.203-1.43.907-3.04 1.668-4.82 2.29 1.01.435 1.905.986 2.717 1.652.81.676 1.56 1.48 2.267 2.407.698.94 1.36 2.016 1.992 3.238.613 1.2 1.24 2.58 1.863 4.11l5.42 13.314c.438 1.122.715 1.913.844 2.358.12.462.19.81.19 1.057zM235.4 202.46c0-2.368-.53-4.374-1.59-6.008-1.062-1.63-2.837-2.81-5.328-3.526-.782-.22-1.66-.372-2.64-.472-.985-.093-2.267-.137-3.858-.137h-6.78V212.7h7.854c2.12 0 3.944-.263 5.495-.774 1.542-.518 2.827-1.23 3.852-2.15 1.03-.923 1.786-2 2.27-3.247.48-1.25.724-2.608.724-4.07zM301.377 223.504c0 3.617-.52 6.85-1.58 9.685-1.057 2.843-2.568 5.236-4.538 7.202-1.962 1.96-4.356 3.444-7.18 4.457-2.813 1.02-6.024 1.523-9.61 1.523-3.288 0-6.273-.477-8.977-1.428-2.694-.95-5.013-2.354-6.948-4.213-1.93-1.855-3.415-4.185-4.458-6.963-1.042-2.796-1.563-6.018-1.563-9.66v-36.957c0-.247.057-.456.18-.65.125-.18.34-.324.64-.432.31-.105.708-.2 1.203-.273.486-.08 1.13-.118 1.93-.118.74 0 1.366.037 1.887.117.517.072.928.168 1.22.274.286.107.498.252.622.434.124.193.185.402.185.65v35.978c0 2.767.336 5.173 1.01 7.224.68 2.06 1.65 3.768 2.922 5.13 1.268 1.368 2.806 2.4 4.604 3.087 1.79.688 3.808 1.037 6.052 1.037 2.297 0 4.346-.332 6.135-1.02 1.802-.67 3.317-1.68 4.563-3.03 1.24-1.355 2.188-3.026 2.844-5.024.667-1.98.995-4.313.995-6.986v-36.396c0-.247.06-.456.186-.65.125-.18.337-.324.64-.432.31-.106.717-.202 1.22-.274.508-.08 1.148-.118 1.913-.118.737 0 1.356.038 1.86.118.507.072.905.168 1.196.274.295.106.507.25.648.433.138.193.2.402.2.65v36.35zM346.73 228.994c0 2.775-.518 5.24-1.533 7.396-1.02 2.157-2.433 3.985-4.237 5.487-1.81 1.51-3.94 2.644-6.386 3.402-2.452.755-5.08 1.14-7.913 1.14-1.978 0-3.806-.164-5.488-.51-1.692-.33-3.195-.736-4.52-1.227-1.32-.486-2.434-.986-3.33-1.502-.896-.518-1.515-.954-1.86-1.32-.358-.366-.62-.835-.78-1.393-.17-.563-.253-1.32-.253-2.262 0-.666.03-1.22.092-1.66.058-.44.15-.8.274-1.073.12-.273.273-.464.45-.57.186-.105.403-.158.642-.158.424 0 1.03.262 1.802.773.777.52 1.77 1.086 2.99 1.686 1.214.615 2.682 1.187 4.395 1.705 1.72.535 3.702.805 5.95.805 1.7 0 3.266-.22 4.68-.684 1.412-.46 2.628-1.105 3.652-1.938 1.007-.84 1.797-1.864 2.345-3.077.54-1.216.813-2.6.813-4.148 0-1.678-.38-3.11-1.13-4.29-.765-1.187-1.763-2.226-3.013-3.124-1.25-.895-2.668-1.717-4.267-2.46-1.59-.745-3.23-1.51-4.898-2.282-1.675-.77-3.305-1.63-4.88-2.575-1.583-.94-2.992-2.05-4.238-3.325-1.25-1.277-2.263-2.78-3.04-4.492-.773-1.715-1.162-3.777-1.162-6.176 0-2.47.45-4.66 1.352-6.59.89-1.937 2.137-3.553 3.736-4.86 1.596-1.303 3.496-2.306 5.7-2.985 2.2-.688 4.584-1.03 7.134-1.03 1.31 0 2.62.12 3.95.342 1.316.228 2.565.538 3.735.914 1.172.38 2.21.81 3.127 1.27.9.473 1.512.857 1.794 1.15.292.286.48.51.57.68.098.167.172.384.228.636.062.26.11.57.138.94.03.362.053.83.053 1.404 0 .553-.03 1.037-.075 1.463-.04.43-.115.79-.207 1.078-.09.28-.222.503-.386.636-.167.133-.357.208-.568.208-.342 0-.858-.216-1.58-.646-.71-.424-1.58-.896-2.62-1.436-1.033-.53-2.26-1.012-3.666-1.458-1.418-.438-3.01-.663-4.77-.663-1.64 0-3.07.227-4.286.663-1.214.446-2.223 1.034-3.008 1.753-.795.734-1.382 1.6-1.78 2.6-.393 1.007-.592 2.077-.592 3.198 0 1.64.38 3.05 1.14 4.24.76 1.188 1.772 2.235 3.03 3.145 1.27.91 2.705 1.75 4.313 2.504 1.612.76 3.256 1.533 4.926 2.313 1.674.77 3.308 1.625 4.926 2.547 1.612.934 3.042 2.02 4.315 3.283 1.253 1.268 2.27 2.752 3.044 4.475.78 1.72 1.17 3.743 1.17 6.08zM396.664 189.133c0 .592-.03 1.104-.092 1.533-.066.438-.164.794-.305 1.056-.133.266-.314.46-.514.583-.2.128-.43.185-.678.185h-16.982v52.354c0 .248-.06.47-.19.65-.12.19-.34.34-.65.45-.312.103-.72.198-1.234.27-.52.08-1.163.122-1.938.122-.75 0-1.39-.04-1.912-.12-.535-.074-.948-.17-1.26-.273-.313-.11-.53-.26-.656-.45-.12-.18-.188-.4-.188-.65V192.49h-16.982c-.248 0-.473-.057-.678-.185-.203-.124-.365-.317-.49-.583-.12-.262-.225-.617-.305-1.056-.075-.43-.118-.94-.118-1.533 0-.588.043-1.117.12-1.56.08-.456.185-.825.304-1.1.125-.274.287-.482.49-.61.205-.12.43-.187.678-.187h41.992c.248 0 .48.066.678.187.2.128.382.336.515.61.14.273.236.644.305 1.1.057.442.09.972.09 1.56z"/><path fill="#929497" d="M443.382 203.39c0 3.025-.498 5.753-1.502 8.187-1 2.43-2.42 4.506-4.277 6.21-1.852 1.72-4.125 3.046-6.824 3.98-2.696.937-5.907 1.398-9.655 1.398h-6.867v21.78c0 .257-.075.47-.213.66-.14.185-.354.335-.65.44-.292.106-.704.206-1.223.286-.506.067-1.153.116-1.934.116-.777 0-1.428-.05-1.934-.115-.527-.08-.938-.18-1.246-.286-.316-.104-.53-.256-.654-.44-.127-.19-.186-.402-.186-.658V189.14c0-1.245.326-2.133.98-2.666.653-.53 1.383-.796 2.198-.796h12.942c1.314 0 2.564.053 3.77.168 1.195.104 2.617.34 4.244.697 1.64.357 3.31 1.03 5.012 2.01 1.695.98 3.135 2.19 4.316 3.622 1.19 1.437 2.102 3.093 2.734 4.98.644 1.886.968 3.962.968 6.236zm-8.465.655c0-2.46-.46-4.514-1.383-6.16-.914-1.653-2.053-2.89-3.41-3.698-1.355-.81-2.756-1.325-4.2-1.54-1.454-.214-2.868-.328-4.237-.328h-7.43v24.254h7.246c2.43 0 4.447-.313 6.05-.936 1.604-.628 2.954-1.48 4.042-2.59 1.09-1.107 1.92-2.43 2.482-3.972.557-1.54.84-3.22.84-5.03zM462.402 244.906c0 .246-.06.467-.186.648-.125.18-.34.332-.654.438-.31.11-.715.203-1.23.283-.504.076-1.154.11-1.926.11-.742 0-1.38-.034-1.904-.11-.53-.08-.95-.172-1.254-.283-.31-.104-.53-.256-.656-.438-.12-.183-.182-.402-.182-.648v-57.74c0-.25.072-.47.205-.65.14-.184.37-.333.7-.436.323-.11.743-.21 1.25-.283.52-.073 1.128-.118 1.84-.118.772 0 1.423.044 1.927.117.516.072.922.174 1.23.283.314.103.53.252.654.435.125.184.186.4.186.652v57.74zM508.62 242.945c0 .613-.026 1.14-.087 1.56-.063.42-.164.786-.31 1.077-.136.295-.304.52-.51.648-.196.143-.438.217-.728.217h-26.738c-.715 0-1.385-.242-2.027-.73-.635-.48-.955-1.333-.955-2.548v-55.995c0-.246.055-.47.184-.653.128-.186.343-.336.647-.44.318-.11.738-.208 1.27-.284.523-.073 1.164-.118 1.92-.118.773 0 1.418.045 1.934.118.52.076.925.174 1.24.283.313.106.528.257.65.442.128.186.192.407.192.653v52.306h21.684c.29 0 .53.07.73.214.204.137.372.342.507.604.146.267.248.613.313 1.056.057.433.085.962.085 1.59zM563.386 215.313c0 4.754-.563 9.053-1.686 12.88-1.123 3.82-2.8 7.07-5.033 9.76-2.227 2.68-5.025 4.745-8.39 6.188-3.368 1.443-7.306 2.162-11.788 2.162-4.435 0-8.267-.657-11.495-1.973-3.23-1.327-5.904-3.243-8.014-5.767-2.104-2.515-3.68-5.642-4.708-9.373-1.03-3.734-1.557-8.027-1.557-12.877 0-4.644.57-8.857 1.69-12.66 1.122-3.787 2.81-7.014 5.058-9.67 2.244-2.66 5.05-4.7 8.42-6.142 3.37-1.437 7.293-2.163 11.785-2.163 4.338 0 8.115.654 11.334 1.957 3.21 1.31 5.89 3.213 8.033 5.712 2.135 2.506 3.725 5.602 4.77 9.284 1.052 3.686 1.58 7.913 1.58 12.683zm-8.28.544c0-3.34-.302-6.44-.89-9.313-.596-2.86-1.582-5.35-2.96-7.46-1.376-2.105-3.22-3.76-5.52-4.94-2.303-1.178-5.154-1.772-8.55-1.772-3.392 0-6.24.64-8.546 1.91-2.3 1.278-4.17 2.97-5.61 5.096-1.442 2.13-2.47 4.61-3.09 7.44-.626 2.843-.933 5.823-.933 8.946 0 3.46.285 6.645.865 9.563.574 2.902 1.547 5.416 2.904 7.52 1.365 2.113 3.193 3.757 5.48 4.92 2.284 1.17 5.157 1.753 8.62 1.753 3.418 0 6.3-.638 8.635-1.914 2.33-1.275 4.212-2.99 5.638-5.162 1.42-2.174 2.438-4.685 3.04-7.527.606-2.853.917-5.876.917-9.06zM610.33 189.14c0 .584-.03 1.105-.098 1.538-.057.442-.162.79-.305 1.057-.14.26-.31.455-.51.583-.205.124-.426.185-.674.185h-17.01v52.443c0 .256-.066.47-.2.658-.118.186-.335.336-.647.44-.314.107-.725.207-1.242.287-.508.067-1.158.116-1.94.116-.74 0-1.388-.05-1.913-.115-.528-.08-.952-.18-1.26-.286-.312-.104-.53-.256-.653-.44-.125-.19-.188-.402-.188-.658v-52.443h-17.024c-.24 0-.465-.06-.668-.185-.203-.128-.37-.322-.496-.583-.117-.266-.225-.613-.303-1.057-.08-.433-.116-.954-.116-1.537 0-.596.035-1.116.115-1.565.077-.457.185-.822.302-1.1.125-.275.293-.483.496-.61.203-.12.428-.187.668-.187h42.078c.248 0 .47.065.674.186.2.128.37.336.51.61.145.277.248.644.307 1.1.063.45.095.97.095 1.567z"/><path fill="#F6A123" d="M74.666 186.725v25.688s19.393 9.258 29.265 25.812c0 0 4.356-36.556 28.81-51.498l-58.074-.002z"/><linearGradient id="a" gradientUnits="userSpaceOnUse" x1="119.635" y1="-205.162" x2="119.635" y2="-171.953" gradientTransform="matrix(1 0 0 -1 -15.96 39.787)"><stop offset="0" stop-color="#E47A27"/><stop offset=".472" stop-color="#F6A123"/></linearGradient><path fill="url(#a)" d="M74.61 233.58v11.37h26.132s-9.956-10.598-26.133-11.37zm33.146 11.348h24.985V211.74c-14.14 3.83-24.984 33.188-24.984 33.188z"/><linearGradient id="b" gradientUnits="userSpaceOnUse" x1="119.526" y1="-169.613" x2="119.526" y2="-147.326" gradientTransform="matrix(1 0 0 -1 -15.96 39.787)"><stop offset="0" stop-color="#FFF"/><stop offset="1" stop-color="#F6A123"/></linearGradient><path opacity=".5" fill="url(#b)" d="M74.997 187.113h57.14s-9.387 3.305-19.49 21.928c0 0-22.095 2.25-37.596-4.5l-.053-17.427z"/><linearGradient id="c" gradientUnits="userSpaceOnUse" x1="148.666" y1="-146.939" x2="148.666" y2="-146.987" gradientTransform="matrix(1 0 0 -1 -15.96 39.787)"><stop offset="0" stop-color="#494949"/><stop offset="1" stop-color="#010202"/></linearGradient><path fill="url(#c)" d="M132.67 186.773c.026-.015.048-.035.07-.05"/><linearGradient id="d" gradientUnits="userSpaceOnUse" x1="119.664" y1="-147.217" x2="119.664" y2="-204.934" gradientTransform="matrix(1 0 0 -1 -15.96 39.787)"><stop offset="0" stop-color="#494949"/><stop offset="1" stop-color="#010202"/></linearGradient><path fill="url(#d)" d="M103.93 238.223c-9.87-16.554-29.264-25.812-29.264-25.812v21.18c16.142.794 26.076 11.358 26.076 11.358l7.014-.02s10.845-29.358 24.985-33.19v-24.966h-.07c-24.388 14.972-28.74 51.45-28.74 51.45z"/><g><path fill="#007F4E" d="M0 116.47c0 5.524 4.477 10 10 10h106.47c5.524 0 10-4.476 10-10V10c0-5.523-4.476-10-10-10H10C4.477 0 0 4.477 0 10v106.47z"/><path fill="#FFF" d="M63.236 19.76l-10.58 32.936H18.443l27.64 21.737-10.514 30.96 27.666-19.76 27.665 19.76-10.538-30.96 27.665-21.737H73.775"/><path fill="#007F4E" d="M139.646 116.47c0 5.524 4.477 10 10 10h106.47c5.524 0 10-4.476 10-10V10c0-5.523-4.476-10-10-10h-106.47c-5.523 0-10 4.477-10 10v106.47z"/><path fill="#FFF" d="M202.88 19.76L192.3 52.697h-34.21l27.638 21.737-10.513 30.96 27.666-19.76 27.666 19.76-10.54-30.96 27.667-21.737H213.42"/><path fill="#007F4E" d="M279.29 116.47c0 5.524 4.478 10 10 10h106.473c5.522 0 10-4.476 10-10V10c0-5.523-4.478-10-10-10H289.29c-5.522 0-10 4.477-10 10v106.47z"/><path fill="#FFF" d="M342.526 19.76l-10.58 32.936h-34.212l27.64 21.737-10.513 30.96 27.666-19.76 27.666 19.76-10.54-30.96 27.666-21.737h-34.252"/><g><path fill="#007F4E" d="M418.936 116.47c0 5.524 4.478 10 10 10h106.47c5.523 0 10-4.476 10-10V10c0-5.523-4.477-10-10-10h-106.47c-5.522 0-10 4.477-10 10v106.47z"/><path fill="#FFF" d="M482.17 19.76l-10.58 32.936h-34.21l27.64 21.737-10.515 30.96 27.666-19.76 27.666 19.76-10.54-30.96 27.667-21.737H492.71"/></g><g><path fill="#007F4E" d="M558.58 116.47c0 5.524 4.48 10 10 10h106.473c5.522 0 10-4.476 10-10V10c0-5.523-4.478-10-10-10H568.58c-5.52 0-10 4.477-10 10v106.47z"/><path fill="#FFF" d="M621.817 19.76l-10.58 32.936h-34.212l27.64 21.737-10.514 30.96 27.667-19.76 27.665 19.76-10.54-30.96 27.667-21.737h-34.254"/></g></g></svg>